# xmcd CD database file
#
# Track frame offsets:
#	150
#	14370
#	28520
#	42257
#	55280
#	69655
#	82325
#	95460
#	111822
#	125395
#	137757
#	150622
#	162815
#	177680
#	191925
#	206382
#	219030
#	232090
#	246975
#	259280
#	274000
#	287692
#	303182
#
# Disc length: 4220 seconds
#
# Revision: 0
# Processed by: cddbd v1.5PL3 Copyright (c) Steve Scherf et al.
# Submitted via: CDex 1.51
#
DISCID=52107a17
DTITLE=Memphis Minnie and Kansas Joe - Volume i 18 June 1929 to 29 May 1930
DYEAR=1900
DGENRE=Blues
TTITLE0=I Want That
TTITLE1=That Will Be Alright
TTITLE2=Goin' Back to Texas
TTITLE3='Frisco Town
TTITLE4=When the Levee Breaks
TTITLE5=Bumble Bee (148712)
TTITLE6=I'm Gonna Bake My Biscuits
TTITLE7=Mister Tango Blues
TTITLE8=She WOuldn't Give Me None
TTITLE9=What Fault You Find of Me? Part 1
TTITLE10=What Fault You Find of Me? Part 2
TTITLE11=I'm Talking About You
TTITLE12=Bumble Bee (MEM-773)
TTITLE13=Can I Do It For You? Part 1
TTITLE14=Can I Do It For You? Part 2
TTITLE15=I'm Going Back Home
TTITLE16=Bumble Bee Blues (59993)
TTITLE17=Meningitis Blues
TTITLE18=I Never Told a Lie
TTITLE19=I Don't Want No Woman I Have to Give My Money to
TTITLE20=Georgia Skin
TTITLE21=I Don't Want No Woman (C-5817)
TTITLE22=I'm Wild About My Stuff
EXTD=
EXTT0=
EXTT1=
EXTT2=
EXTT3=
EXTT4=
EXTT5=
EXTT6=
EXTT7=
EXTT8=
EXTT9=
EXTT10=
EXTT11=
EXTT12=
EXTT13=
EXTT14=
EXTT15=
EXTT16=
EXTT17=
EXTT18=
EXTT19=
EXTT20=
EXTT21=
EXTT22=
PLAYORDER=
